<?xml version="1.0" encoding="UTF-8"?><svg id="Layer_2" xmlns="http://www.w3.org/2000/svg" viewBox="0 0 246.72 29.76"><defs><style>.cls-1{fill:transparent;}</style></defs><g id="Layer_1-2"><path class="cls-1" d="m138.34,29.76H0V0h246.72v29.76h-74.57c-.14-.04-.29-.08-.43-.13.87,0,1.69-.19,2.51-.42,2.33-.65,4.12-1.99,5.22-4.14.95-1.87,1.33-3.89,1.33-5.98,0-5.77,0-11.55.01-17.32,0-.27,0-.53,0-.81h-6.49c0,.14,0,.27,0,.4,0,5.88,0,11.77,0,17.65,0,.76-.1,1.5-.36,2.22-.42,1.15-1.21,1.92-2.44,2.12-.59.1-1.22.09-1.81.03-1.4-.16-2.44-.88-2.9-2.23-.21-.61-.37-1.27-.37-1.91-.03-5.58-.01-11.15,0-16.73,0-.51,0-1.02,0-1.54h-7.21c0,.11,0,.21,0,.31,0,5.84,0,11.69,0,17.53,0,1.49.18,2.96.54,4.42.56,2.27,1.82,4.02,3.91,5.12,1.33.7,2.76,1.13,4.28,1.24.19.01.39.04.58.06,0,.01,0,.03,0,.04-.22.03-.45.06-.67.09h-25.96c-.14-.04-.28-.09-.48-.15.35-.02.63,0,.9-.05,1.2-.21,2.36-.57,3.43-1.17,1.08-.61,2.08-1.33,2.94-2.23,1.56-1.65,2.61-3.58,3.25-5.75.88-2.99,1.07-6.02.44-9.08-.39-1.89-1-3.68-2.05-5.32-1.35-2.13-3.08-3.85-5.45-4.83-2.12-.88-4.33-1.12-6.6-.76-2.46.38-4.6,1.42-6.34,3.21-2.65,2.72-3.88,6.06-4.2,9.77-.14,1.63-.06,3.25.24,4.86.54,2.94,1.6,5.63,3.7,7.85,1.91,2.03,4.23,3.23,7.02,3.51.06,0,.12.02.17.03,0,.01,0,.02,0,.03-.17.03-.35.06-.52.09Zm64.05-14.21s-.05,0-.07,0c-.05-.12-.1-.24-.14-.36-.7-2.21-1.39-4.42-2.09-6.63-.78-2.43-1.57-4.86-2.34-7.3-.08-.24-.18-.32-.43-.32-2.91,0-5.81,0-8.72,0h-.28v28.08h5.86V11.28s.04,0,.06,0c1.76,5.92,3.52,11.84,5.29,17.76.03,0,.07.01.11.01,1.12,0,2.24,0,3.36,0,.31,0,.7.09.9-.06.2-.15.22-.55.31-.84,1.55-5.21,3.1-10.43,4.64-15.64.13-.44.27-.87.4-1.31,0,0,.02,0,.03.01v17.82h6.98V.95c-.14,0-.26,0-.38,0-2.72,0-5.43,0-8.15,0-.89,0-.69-.15-.96.7-1.31,4.13-2.61,8.27-3.92,12.41-.16.5-.3,1-.45,1.5Zm-96.67-3.91V.97h-7.17v28.06h7.19v-11.39h7.91v11.39h7.17V.97h-7.19v10.68h-7.91Zm140.77,17.38c-.02-.1-.04-.19-.06-.27-1.11-3.68-2.23-7.35-3.34-11.03-1.67-5.52-3.34-11.05-5.01-16.58-.05-.17-.14-.21-.3-.21-2.34,0-4.67,0-7.01,0-.17,0-.25.06-.3.22-.18.57-.37,1.13-.55,1.7-1.12,3.59-2.24,7.18-3.36,10.78-1.5,4.85-3,9.7-4.5,14.56-.08.27-.17.54-.26.83.1,0,.15.02.21.02,2.01,0,4.02,0,6.02,0,.22,0,.28-.1.33-.29.44-1.64.88-3.27,1.33-4.9.04-.16.08-.3.32-.3,2.41.01,4.81,0,7.22,0,.18,0,.26.05.3.23.13.56.27,1.12.41,1.67.29,1.19.59,2.38.88,3.56h7.65Zm-181.04,0h17.24v-5.94h-10.05V.97h-7.19v28.06ZM.29,17.85c.02.13.04.2.05.28.16.66.33,1.33.5,1.99.71,2.88,1.43,5.77,2.13,8.65.06.23.15.28.36.27.59-.01,1.18-.02,1.77,0,.26,0,.35-.1.4-.32.48-1.88.96-3.76,1.45-5.64.03-.13.1-.26.17-.44.04.09.06.12.06.14.54,2.01,1.08,4.02,1.61,6.03.05.18.12.24.3.23.66-.01,1.32-.01,1.98,0,.22,0,.31-.08.31-.29,0-.06.02-.12.03-.18.76-3.17,1.53-6.33,2.29-9.5.1-.4.19-.8.29-1.23-.79,0-1.54.01-2.29,0-.27,0-.37.1-.42.34-.35,1.71-.7,3.42-1.05,5.12-.05.24-.11.49-.17.73-.18-.45-.3-.9-.42-1.34-.4-1.51-.8-3.03-1.19-4.54-.05-.19-.1-.31-.35-.3-.53.02-1.06.02-1.59,0-.22,0-.29.08-.34.27-.48,1.92-.97,3.84-1.46,5.76-.01.05-.06.1-.12.21-.18-.81-.36-1.55-.52-2.29-.28-1.23-.55-2.46-.83-3.68-.02-.1-.14-.25-.22-.25-.9-.02-1.79-.01-2.74-.01Zm48.16,11.22c1.63-.04,3.25.02,4.84-.13,2-.18,3.35-1.3,3.93-3.23.38-1.26.38-2.54.14-3.83-.43-2.33-2.14-3.86-4.51-3.98-1.44-.07-2.87-.05-4.31-.06-.03,0-.05.02-.09.03v11.19Zm-13.46-.05c-.05-.15-.1-.27-.14-.39-1.06-3.5-2.12-7.01-3.17-10.52-.07-.22-.16-.28-.37-.27-.73,0-1.46,0-2.19,0-.49,0-.48,0-.63.47-1.08,3.47-2.17,6.93-3.25,10.4-.03.1-.04.2-.07.32.74,0,1.44-.01,2.13,0,.31,0,.45-.09.51-.39.12-.52.27-1.04.42-1.55.02-.08.12-.2.19-.2.99-.01,1.97,0,2.98,0,.18.71.36,1.41.54,2.13h3.04Zm11.03,0c-.05-.15-.1-.27-.14-.39-1.06-3.5-2.12-7.01-3.17-10.52-.07-.22-.16-.28-.37-.27-.73,0-1.46,0-2.19,0-.49,0-.48,0-.63.47-1.08,3.47-2.17,6.93-3.25,10.4-.03.1-.04.2-.07.32.75,0,1.46-.01,2.17,0,.29,0,.41-.09.48-.36.13-.53.27-1.05.42-1.58.02-.08.12-.2.19-.2.99-.01,1.97,0,2.98,0,.18.71.35,1.41.54,2.13h3.04Zm-29.45-.01h6.84v-2.36h-3.99v-8.79h-2.85v11.15Z"/><path d="m138.34,29.76c.17-.03.35-.06.52-.09,0-.01,0-.02,0-.03-.06-.01-.12-.03-.17-.03-2.79-.27-5.11-1.47-7.02-3.51-2.1-2.22-3.16-4.91-3.7-7.85-.29-1.61-.38-3.23-.24-4.86.32-3.71,1.55-7.05,4.2-9.77,1.74-1.79,3.87-2.82,6.34-3.21,2.27-.35,4.48-.12,6.6.76,2.37.98,4.09,2.7,5.45,4.83,1.04,1.64,1.66,3.44,2.05,5.32.63,3.06.43,6.09-.44,9.08-.64,2.17-1.69,4.1-3.25,5.75-.86.9-1.85,1.62-2.94,2.23-1.07.6-2.23.96-3.43,1.17-.27.05-.56.03-.9.05.2.06.34.11.48.15-1.18,0-2.36,0-3.54,0Zm6.4-14.91c-.07-1.07-.15-2.13-.23-3.2-.02-.28-.07-.55-.12-.82-.21-1.15-.54-2.26-1.18-3.25-1.42-2.18-4.67-2.17-6.02.04-.4.66-.7,1.4-.94,2.14-.39,1.19-.45,2.43-.51,3.67-.1,2.04-.06,4.06.33,6.07.22,1.13.61,2.19,1.29,3.14,1.33,1.87,4.13,1.72,5.37.36.64-.7,1.04-1.52,1.3-2.41.55-1.87.65-3.8.71-5.74Z"/><path d="m167.84,29.76l.67-.09s0-.03,0-.04c-.19-.02-.39-.04-.58-.06-1.52-.11-2.94-.54-4.28-1.24-2.09-1.1-3.35-2.85-3.91-5.12-.36-1.45-.53-2.93-.54-4.42-.01-5.84,0-11.69,0-17.53,0-.1,0-.19,0-.31h7.21c0,.52,0,1.03,0,1.54,0,5.58-.02,11.15,0,16.73,0,.64.16,1.3.37,1.91.47,1.35,1.5,2.07,2.9,2.23.6.07,1.22.07,1.81-.03,1.23-.2,2.02-.97,2.44-2.12.26-.72.36-1.46.36-2.22,0-5.88,0-11.77,0-17.65,0-.13,0-.25,0-.4h6.49c0,.28,0,.54,0,.81,0,5.77,0,11.55-.01,17.32,0,2.09-.38,4.11-1.33,5.98-1.1,2.16-2.89,3.49-5.22,4.14-.82.23-1.64.42-2.51.42.14.04.29.08.43.13-1.44,0-2.88,0-4.32,0Z"/><path d="m202.4,15.55c.15-.5.29-1,.45-1.5,1.3-4.14,2.61-8.27,3.92-12.41.27-.85.07-.7.96-.7,2.72,0,5.43,0,8.15,0,.12,0,.24,0,.38,0v28.08h-6.98V11.21s-.02,0-.03-.01c-.13.44-.27.87-.4,1.31-1.55,5.21-3.09,10.43-4.64,15.64-.09.29-.11.69-.31.84-.2.15-.59.06-.9.06-1.12,0-2.24,0-3.36,0-.04,0-.08,0-.11-.01-1.77-5.93-3.53-11.85-5.29-17.76-.02,0-.04,0-.06,0v17.75h-5.86V.95h.28c2.91,0,5.81,0,8.72,0,.26,0,.36.08.43.32.77,2.44,1.57,4.86,2.34,7.3.7,2.21,1.39,4.42,2.09,6.63.04.12.09.24.14.36.02,0,.05,0,.07,0Z"/><path d="m105.73,11.65h7.91V.97h7.19v28.05h-7.17v-11.39h-7.91v11.39h-7.19V.97h7.17v10.68Z"/><path d="m246.5,29.03h-7.65c-.29-1.19-.59-2.37-.88-3.56-.14-.56-.28-1.11-.41-1.67-.04-.18-.12-.23-.3-.23-2.41,0-4.81,0-7.22,0-.24,0-.28.13-.32.3-.44,1.63-.89,3.27-1.33,4.9-.05.19-.11.29-.33.29-2.01,0-4.02,0-6.02,0-.06,0-.11-.01-.21-.02.09-.29.18-.56.26-.83,1.5-4.85,3-9.71,4.5-14.56,1.11-3.59,2.23-7.18,3.36-10.78.18-.57.37-1.13.55-1.7.05-.16.12-.22.3-.22,2.34,0,4.67,0,7.01,0,.16,0,.25.04.3.21,1.67,5.53,3.34,11.05,5.01,16.58,1.11,3.68,2.23,7.35,3.34,11.03.02.08.04.17.06.27Zm-12.58-20.16s-.07,0-.11,0c-.83,3.05-1.66,6.09-2.49,9.15h4.82c-.75-3.08-1.48-6.11-2.22-9.15Z"/><path d="m65.46,29.02V.97h7.19v22.11h10.05v5.94h-17.24Z"/><path d="m.29,17.85c.94,0,1.84,0,2.74.01.08,0,.2.15.22.25.28,1.22.55,2.45.83,3.68.17.74.34,1.48.52,2.29.06-.11.11-.15.12-.21.49-1.92.98-3.84,1.46-5.76.05-.19.12-.28.34-.27.53.02,1.06.02,1.59,0,.25-.01.3.12.35.3.39,1.51.79,3.03,1.19,4.54.12.45.24.89.42,1.34.06-.24.12-.48.17-.73.35-1.71.7-3.41,1.05-5.12.05-.24.15-.34.42-.34.75.02,1.5,0,2.29,0-.1.43-.19.83-.29,1.23-.76,3.17-1.53,6.33-2.29,9.5-.01.06-.03.12-.03.18,0,.21-.09.29-.31.29-.66-.01-1.32-.01-1.98,0-.18,0-.25-.05-.3-.23-.53-2.01-1.07-4.02-1.61-6.03,0-.03-.02-.05-.06-.14-.07.18-.13.31-.17.44-.49,1.88-.97,3.76-1.45,5.64-.06.22-.14.33-.4.32-.59-.02-1.18-.01-1.77,0-.21,0-.31-.05-.36-.27-.7-2.89-1.42-5.77-2.13-8.65-.16-.66-.33-1.33-.5-1.99-.02-.07-.03-.15-.05-.28Z"/><path d="m48.44,29.08v-11.19s.06-.03.09-.03c1.44.02,2.88,0,4.31.06,2.38.11,4.09,1.65,4.51,3.98.24,1.29.24,2.57-.14,3.83-.59,1.93-1.93,3.05-3.93,3.23-1.6.14-3.21.09-4.84.13Zm2.88-2.28c.41,0,.81.02,1.21,0,.85-.05,1.47-.46,1.76-1.25.5-1.36.48-2.75,0-4.1-.28-.79-.9-1.25-1.76-1.32-.4-.03-.8,0-1.2,0v6.68Z"/><path d="m34.98,29.03h-3.04c-.18-.72-.36-1.41-.54-2.13-1.01,0-1.99,0-2.98,0-.07,0-.17.12-.19.2-.15.51-.3,1.03-.42,1.55-.07.3-.21.4-.51.39-.7-.02-1.4,0-2.13,0,.03-.12.04-.23.07-.32,1.08-3.47,2.16-6.93,3.25-10.4.15-.47.14-.47.63-.47.73,0,1.46,0,2.19,0,.21,0,.3.05.37.27,1.05,3.51,2.11,7.01,3.17,10.52.04.12.08.24.14.39Zm-4.11-4.33c-.3-1.25-.6-2.47-.89-3.69-.03,0-.06,0-.09,0-.33,1.22-.65,2.44-.98,3.69h1.96Z"/><path d="m46.01,29.03h-3.04c-.18-.72-.36-1.41-.54-2.13-1,0-1.99,0-2.98,0-.07,0-.17.12-.19.2-.15.52-.3,1.05-.42,1.58-.06.27-.19.37-.48.36-.71-.02-1.42,0-2.17,0,.03-.12.04-.22.07-.32,1.08-3.47,2.16-6.93,3.25-10.4.15-.47.14-.47.63-.47.73,0,1.46,0,2.19,0,.21,0,.3.05.37.27,1.05,3.51,2.11,7.01,3.17,10.52.04.12.08.24.14.39Zm-4.11-4.33c-.3-1.25-.6-2.47-.89-3.68-.03,0-.06,0-.09,0-.33,1.22-.65,2.44-.98,3.68h1.96Z"/><path d="m16.55,29.02v-11.15h2.85v8.79h3.99v2.36h-6.84Z"/><path class="cls-1" d="m144.74,14.85c-.06,1.94-.17,3.87-.71,5.74-.26.89-.66,1.71-1.3,2.41-1.23,1.35-4.04,1.51-5.37-.36-.68-.95-1.07-2.01-1.29-3.14-.39-2.01-.43-4.04-.33-6.07.06-1.24.12-2.48.51-3.67.24-.74.54-1.48.94-2.14,1.35-2.21,4.6-2.22,6.02-.04.64.99.97,2.1,1.18,3.25.05.27.1.55.12.82.08,1.07.15,2.13.23,3.2Z"/><path class="cls-1" d="m233.92,8.87c.74,3.04,1.47,6.08,2.22,9.15h-4.82c.83-3.06,1.66-6.1,2.49-9.15.04,0,.07,0,.11,0Z"/><path class="cls-1" d="m51.33,26.8v-6.68c.41,0,.81-.03,1.2,0,.86.07,1.48.52,1.76,1.32.49,1.36.51,2.74,0,4.1-.29.79-.92,1.2-1.76,1.25-.39.02-.79,0-1.21,0Z"/><path class="cls-1" d="m30.87,24.7h-1.96c.33-1.25.66-2.47.98-3.69.03,0,.06,0,.09,0,.29,1.22.59,2.44.89,3.69Z"/><path class="cls-1" d="m41.9,24.7h-1.96c.33-1.24.66-2.46.98-3.68.03,0,.06,0,.09,0,.29,1.22.59,2.44.89,3.68Z"/></g><g id="Layer_3"><path class="cls-1" d="m83.85,10.66V.92h9.74v9.74h-9.74Zm4.83-.04s.04-.05.06-.06c.44-.44.88-.88,1.33-1.33.02-.02.05-.03.08-.03.64,0,1.28,0,1.93,0h.05v-.05c0-.33,0-.66,0-.99,0-.32,0-.63,0-.95,0-.02,0-.04.02-.05.22-.23.45-.45.67-.67.24-.24.47-.47.71-.71.02-.02.02-.03,0-.05-.06-.06-.12-.12-.17-.18-.39-.39-.79-.79-1.19-1.18-.03-.02-.04-.05-.04-.09,0-.63,0-1.26,0-1.89v-.05h-.05c-.63,0-1.26,0-1.89,0-.03,0-.05,0-.07-.03-.09-.09-.17-.18-.26-.27-.36-.36-.71-.71-1.07-1.06-.06-.06-.06-.05-.11,0-.44.44-.89.89-1.33,1.33-.02.02-.04.03-.07.03-.65,0-1.31,0-1.96,0-.02,0-.03,0-.05,0v.05c0,.66,0,1.31,0,1.97,0,.03,0,.05-.03.07-.11.11-.23.23-.34.34-.33.33-.66.66-.99.99-.02.02-.02.04,0,.06.05.05.1.1.15.15.39.39.78.78,1.18,1.17.03.03.04.05.04.09,0,.64,0,1.28,0,1.92,0,.02,0,.03,0,.05h.05c.15,0,.29,0,.44,0,.5,0,1,0,1.5,0,.02,0,.04,0,.05.02.41.41.82.81,1.22,1.22.06.06.12.12.18.18Z"/><path d="m88.68,10.62c-.06-.06-.12-.12-.18-.18-.41-.41-.81-.82-1.22-1.22-.01-.01-.03-.02-.05-.02-.5,0-1,0-1.5,0-.15,0-.29,0-.44,0h-.05s0-.03,0-.05c0-.64,0-1.28,0-1.92,0-.04,0-.06-.04-.09-.39-.39-.78-.78-1.18-1.17-.05-.05-.1-.1-.15-.15-.02-.02-.02-.04,0-.06.33-.33.66-.66.99-.99.11-.11.23-.23.34-.34.02-.02.03-.04.03-.07,0-.66,0-1.31,0-1.97v-.05s.03,0,.05,0c.65,0,1.31,0,1.96,0,.03,0,.05,0,.07-.03.44-.45.89-.89,1.33-1.33.05-.05.06-.06.11,0,.36.35.71.71,1.07,1.06.09.09.18.18.26.27.02.02.04.03.07.03.63,0,1.26,0,1.89,0h.05v.05c0,.63,0,1.26,0,1.89,0,.04.01.06.04.09.4.39.79.79,1.19,1.18.06.06.12.12.17.18.02.02.02.03,0,.05-.24.23-.47.47-.71.71-.22.22-.45.45-.67.67-.01.01-.02.03-.02.05,0,.32,0,.63,0,.95,0,.33,0,.66,0,.99v.05h-.05c-.64,0-1.28,0-1.93,0-.03,0-.06,0-.08.03-.44.44-.88.88-1.33,1.33-.02.02-.04.04-.06.06Z"/></g></svg>