<?xml version="1.0" encoding="UTF-8"?><svg id="Layer_2" xmlns="http://www.w3.org/2000/svg" viewBox="0 0 147.84 156"><defs><style>.cls-1{fill:transparent;}</style></defs><g id="Layer_1-2"><path d="m131.31,156H16.77c-.61-.12-1.23-.21-1.83-.36-9.41-2.3-14.71-9.05-14.71-18.73,0-30.75,0-61.49,0-92.24,0-7.25,4.53-11.79,11.77-11.79,9.3,0,18.6-.02,27.9.02,1,0,1.35-.17,1.33-1.28-.07-5.68-.08-11.36-.01-17.03.05-3.99,1.43-7.49,4.28-10.38C47.9,1.78,50.91.67,54.15,0,67.41,0,80.67,0,93.92,0c.08.07.16.2.24.21,7.59,1.09,12.68,6.94,12.69,14.6,0,5.63-.02,11.27.05,16.9,0,.39.72,1.12,1.1,1.12,9.57.06,19.15,0,28.72.1,1.64.02,3.37.47,4.9,1.1,3.71,1.53,5.39,4.71,6.21,8.45v96.96c-.08.18-.21.35-.23.53-.58,5.79-3.42,10.28-8.32,13.19-2.38,1.42-5.31,1.92-7.99,2.84Zm-57.15-123.12c5.11,0,10.22.02,15.33-.05.37,0,1.03-.69,1.04-1.07.07-4.72.07-9.43,0-14.15,0-.36-.64-1.01-.98-1.01-10.26-.05-20.52-.05-30.77,0-.34,0-.98.66-.98,1.01-.07,4.72-.07,9.43,0,14.15,0,.38.67,1.06,1.04,1.07,5.11.07,10.22.05,15.33.05Zm-24.77,32.64c4.45,0,7.91-3.45,8.17-7.62.33-5.34-4.34-8.59-7.69-8.77-5.3-.28-8.55,4.38-8.73,7.74-.28,5.12,4.32,9.1,8.25,8.64Zm49.06,0c4.47,0,8.17-3.42,8.18-7.56,0-5-3.25-8.75-7.58-8.76-5.06,0-8.5,3.26-8.77,7.74-.3,4.98,4.23,9,8.18,8.58Z"/><path class="cls-1" d="m54.15,0c-3.24.67-6.25,1.78-8.64,4.21-2.85,2.89-4.22,6.39-4.28,10.38-.07,5.68-.05,11.36.01,17.03.01,1.11-.33,1.28-1.33,1.28-9.3-.04-18.6-.02-27.9-.02-7.23,0-11.77,4.54-11.77,11.79,0,30.75,0,61.49,0,92.24,0,9.69,5.29,16.43,14.71,18.73.6.15,1.22.24,1.83.36-5.35,0-10.7,0-16.05-.03-.24,0-.69-.45-.69-.69C0,103.76,0,52.24.03.72.03.48.63.03.95.03,18.68,0,36.41,0,54.15,0Z"/><path class="cls-1" d="m147.84,42.48c-.82-3.74-2.5-6.91-6.21-8.45-1.53-.63-3.25-1.09-4.9-1.1-9.57-.1-19.14-.04-28.72-.1-.39,0-1.1-.73-1.1-1.12-.07-5.63-.04-11.26-.05-16.9-.01-7.67-5.1-13.51-12.69-14.6-.09-.01-.16-.14-.24-.21,17.65,0,35.3,0,52.96.04.32,0,.92.6.92.92.05,13.84.04,27.68.04,41.52Z"/><path class="cls-1" d="m131.31,156c2.68-.92,5.6-1.42,7.99-2.84,4.9-2.91,7.74-7.4,8.32-13.19.02-.18.15-.35.23-.53,0,5.28,0,10.56-.03,15.84,0,.24-.45.69-.69.69-5.27.04-10.54.03-15.81.03Z"/><path class="cls-1" d="m74.16,32.88c-5.11,0-10.22.02-15.33-.05-.37,0-1.04-.69-1.04-1.07-.07-4.72-.07-9.43,0-14.15,0-.36.64-1.01.98-1.01,10.26-.05,20.52-.05,30.77,0,.34,0,.98.65.98,1.01.07,4.72.07,9.43,0,14.15,0,.38-.67,1.06-1.04,1.07-5.11.07-10.22.05-15.33.05Z"/><path class="cls-1" d="m49.39,65.52c-3.93.45-8.53-3.52-8.25-8.64.18-3.37,3.44-8.03,8.73-7.74,3.34.18,8.02,3.43,7.69,8.77-.26,4.17-3.71,7.62-8.17,7.62Z"/><path class="cls-1" d="m98.45,65.52c-3.95.42-8.47-3.6-8.18-8.58.27-4.48,3.71-7.74,8.77-7.74,4.33,0,7.59,3.76,7.58,8.76,0,4.14-3.7,7.56-8.18,7.56Z"/></g></svg>